<?xml version="1.0" standalone="no"?>
<!DOCTYPE svg PUBLIC "-//W3C//DTD SVG 1.1//EN" "http://www.w3.org/Graphics/SVG/1.1/DTD/svg11.dtd" >
<svg xmlns="http://www.w3.org/2000/svg">
<metadata>
Created by FontForge 20120731 at Sat Apr  1 16:05:22 2017
 By admin
</metadata>
<defs>
<font id="iconfont" horiz-adv-x="1024" >
  <font-face 
    font-family="iconfont"
    font-weight="500"
    font-stretch="normal"
    units-per-em="1024"
    panose-1="2 0 6 3 0 0 0 0 0 0"
    ascent="896"
    descent="-128"
    x-height="792"
    bbox="0 -169 1030 896"
    underline-thickness="0"
    underline-position="0"
    unicode-range="U+0078-E832"
  />
<missing-glyph 
 />
    <glyph glyph-name=".notdef" 
 />
    <glyph glyph-name=".notdef" 
 />
    <glyph glyph-name=".null" horiz-adv-x="0" 
 />
    <glyph glyph-name="nonmarkingreturn" horiz-adv-x="341" 
 />
    <glyph glyph-name="x" unicode="x" horiz-adv-x="1001" 
d="M281 543q-27 -1 -53 -1h-83q-18 0 -36.5 -6t-32.5 -18.5t-23 -32t-9 -45.5v-76h912v41q0 16 -0.5 30t-0.5 18q0 13 -5 29t-17 29.5t-31.5 22.5t-49.5 9h-133v-97h-438v97zM955 310v-52q0 -23 0.5 -52t0.5 -58t-10.5 -47.5t-26 -30t-33 -16t-31.5 -4.5q-14 -1 -29.5 -0.5
t-29.5 0.5h-32l-45 128h-439l-44 -128h-29h-34q-20 0 -45 1q-25 0 -41 9.5t-25.5 23t-13.5 29.5t-4 30v167h911zM163 247q-12 0 -21 -8.5t-9 -21.5t9 -21.5t21 -8.5q13 0 22 8.5t9 21.5t-9 21.5t-22 8.5zM316 123q-8 -26 -14 -48q-5 -19 -10.5 -37t-7.5 -25t-3 -15t1 -14.5
t9.5 -10.5t21.5 -4h37h67h81h80h64h36q23 0 34 12t2 38q-5 13 -9.5 30.5t-9.5 34.5q-5 19 -11 39h-368zM336 498v228q0 11 2.5 23t10 21.5t20.5 15.5t34 6h188q31 0 51.5 -14.5t20.5 -52.5v-227h-327z" />
    <glyph glyph-name="delete" unicode="&#xe692;" 
d="M890 564h-227l1 94q0 9 -7 15.5t-16 6.5h-257q-9 0 -15.5 -6.5t-6.5 -15.5l-1 -94h-227q-9 0 -15.5 -6.5t-6.5 -16t6.5 -16t15.5 -6.5h63v-601q0 -9 6.5 -15.5t15.5 -6.5h586q9 0 15.5 6.5t6.5 15.5v601h63q9 0 15.5 6.5t6.5 16t-6.5 16t-15.5 6.5zM407 635h212l-1 -71
h-212zM782 -59h-540v578h540v-578zM356 44q9 0 15.5 6.5t6.5 16.5v325q0 9 -6.5 15.5t-15.5 6.5t-16 -6.5t-7 -15.5v-325q0 -10 7 -16.5t16 -6.5zM507 44q9 0 15.5 6.5t6.5 16.5v325q0 9 -6.5 15.5t-15.5 6.5t-16 -6.5t-7 -15.5v-325q0 -10 7 -16.5t16 -6.5zM658 44
q9 0 16 6.5t7 16.5v325q0 9 -7 15.5t-16 6.5t-16 -6.5t-7 -15.5v-325q0 -10 7 -16.5t16 -6.5z" />
    <glyph glyph-name="svg11" unicode="&#xe832;" 
d="M513 468q-68 0 -116 -48.5t-48 -116t48 -116t116 -48.5t116.5 48.5t48.5 116t-48.5 116t-116.5 48.5zM513.5 193q-45.5 0 -78 32.5t-32.5 78t32.5 77.5t78 32t77.5 -32t32 -77.5t-32 -78t-77.5 -32.5zM861 425h-16l-1 4l-4 -2l4 3q-5 11 -8 19l-2 3l12 11q32 33 32 79
t-32 79l-15 15q-33 32 -79 32t-79 -32l-11 -12l-3 2q-9 4 -21 8l-3 1v16q0 46 -32.5 79t-78.5 33h-21q-46 0 -79 -33t-33 -79v-16l-3 -1q-11 -4 -20 -8l-3 -2l-11 12q-33 32 -79 32t-79 -32l-15 -15q-33 -33 -33 -79t33 -79l11 -11l-1 -3q-4 -8 -8 -19l-2 -5h-16
q-46 0 -78.5 -32.5t-32.5 -78.5v-21q0 -46 32.5 -79t78.5 -33h16l2 -4q4 -11 8 -19l1 -3l-11 -11q-33 -33 -33 -79t33 -79l15 -15q33 -33 79 -33t79 33l11 11l3 -1q9 -4 20 -8l3 -2v-16q0 -46 33 -78.5t79 -32.5h21q46 0 78.5 32.5t32.5 78.5v16l3 2q12 4 21 8l3 1l11 -11
q33 -33 79 -33t79 33l15 15q32 33 32 79t-32 79l-12 11l2 3q3 7 8 19l-5 2v0h5l1 2h16q46 0 79 33t33 79v21q0 46 -33 78.5t-79 32.5zM916 343v0v0v0zM783 610v0v0v0zM111 263v0v0v0zM206 35v0v0v0zM472 -98v0v0v0zM553 -99v0v0v0zM919 293q0 -6 -2 -11q0 -1 -1 -4v-2
q-1 -3 -2 -5q0 -1 -3 -5v-1q-1 -2 -2 -3q-1 -3 -5 -7l-1 -1l-7 -7q-13 -9 -29 -11h-2h-4h-56l-1 -4q-10 -43 -35 -83l-2 -3l40 -41q14 -13 16 -33q1 -5 1 -9v-3q-1 -4 -1 -7q0 -1 -1 -3l-1 -2q-1 -4 -1.5 -5.5t-2.5 -5.5l-1 -1q-1 -2 -2 -3q-3 -5 -7 -9l-15 -14q-4 -5 -8 -8
q-1 0 -3 -1l-1 -1l2 -4v0l-4 3q-2 -1 -4 -1.5t-5 -1.5l2 -5v0l-3 4h-1q-2 -1 -3 -1q-3 0 -7 -1h-5q-3 0 -8 1q-19 2 -33 16l-40 40l-3 -2q-40 -25 -83 -36h-4v-56v-4v-2q-2 -16 -12 -29q-3 -4 -6 -7l-2 -2q-3 -3 -6 -5q-1 0 -3 -1l-2 -1q-3 -2 -5 -2q-1 -1 -5 -2l-2 -1
q-2 0 -3 -1q-6 -1 -11 -1h-21q-6 0 -11 1q-1 1 -4 1l-2 1q-3 1 -5 1.5t-6 3.5h-1q-1 1 -2 1q-3 2 -7 6l-1 1l-7 7q-10 13 -11 29v2v4v56l-4 1q-43 10 -83 35l-4 2l-40 -41q-13 -13 -33 -16h-7h-5q-4 0 -8 1l-2 1h-2l-1 -4v0v5l-4.5 1.5t-5.5 2.5l-1 1q-2 1 -3 1q-5 4 -9 7
l-15 15q-4 4 -7 9q0 1 -2 3l-1 2q-1 3 -2 5t-1 5l-1 2q-1 2 -1 3q-1 2 -1 9v1v10q3 19 16 32l41 41l-2 3q-25 40 -36 83v4h-57h-3l-1 -5l-1 5q-16 2 -30 12l-6 6q-1 0 -2 2q-3 3 -5 6q0 1 -1 2l-4 -2l3 4v1q-2 3 -3 4q0 2 -1 6l-1 2q-1 1 -1 3q-1 6 -1 11v21q0 6 1 11
q0 1 1 4l1 2l1.5 4.5t2.5 5.5l1 1q1 2 1 3q2 2 6 7l1 1q2 3 7 7q13 9 29 11h2h3h56l1 4q11 43 36 83l2 3l-41 41q-13 13 -16 33v9v2q0 6 1 8l1 3l1 3q1 3 1 4q1 2 2 5l1 1l-4 2l5 -1q1 2 1 3q3 4 7 8l15 15q4 4 9 7q1 1 3 2l2 1q3 2 4 3q2 0 5 1l3 1q2 1 3 1q2 0 8 1v0h2h1
q4 0 9 -1q19 -2 32 -16l40 -40l4 2q40 25 83 35l4 1v56v4v1q2 17 12 30q3 4 6 7q0 1 2 1q4 4 6 5q1 1 3 2l1 1q4 2 5.5 2.5l4.5 1.5l2 1h4q5 2 11 2h21q5 0 11 -2q1 0 3 -1h3l4.5 -1.5t5.5 -3.5h2l2 -2q2 -1 7 -5v-0.5t1 -0.5q3 -3 7 -8q9 -12 11 -29v-1v-4v-56l4 -1
q43 -10 83 -35l3 -2l41 40q13 14 33 16q4 1 7 1h2h2q5 -1 8 -1q1 -1 4 -1l1 -1q4 -1 5.5 -1.5t5.5 -2.5l1 -1q2 -1 3 -2q4 -3 8 -7l15 -15q4 -4 7 -8q1 -1 2 -4l1 -1q2 -4 3 -5q0 -2 1 -5l1 -2q0 -2 1 -3q0 -3 1 -8v-1v-1q0 -4 -1 -10q-2 -19 -16 -33l-40 -40l2 -3
q25 -40 35 -83l1 -4h56h4h1q17 -2 30 -12q4 -3 7 -6l2 -2q3 -4 5 -6q0 -1 1 -4l1 -1q2 -3 2 -5q1 -1 2 -4l1 -3q0 -2 1 -3q1 -6 1 -11v-21v0z" />
    <glyph glyph-name="category" unicode="&#xe677;" 
d="M1007 737q7 0 12 -5t5 -12v-14q0 -7 -5 -12.5t-12 -5.5h-784q-7 0 -12.5 5.5t-5.5 12.5v14q0 7 5.5 12t12.5 5h784zM1007 324q7 0 12 -5.5t5 -12.5v-14q0 -7 -5 -12t-12 -5h-784q-7 0 -12.5 5t-5.5 12v14q0 7 5.5 12.5t12.5 5.5h784zM1007 -90q7 0 12 -5t5 -12v-15
q0 -7 -5 -12t-12 -5h-784q-7 0 -12.5 5t-5.5 12v15q0 7 5.5 12t12.5 5h784zM0 714.5q0 22.5 16 38.5t39 16t39 -16t16 -38.5t-16 -38.5t-39 -16t-39 16t-16 38.5zM0 299q0 23 16 39t39 16t39 -16t16 -39t-16 -39t-39 -16t-39 16t-16 39zM0 -114q0 22 16 38t39 16t39 -16
t16 -38.5t-16 -38.5t-39 -16t-39 16t-16 39v0z" />
    <glyph glyph-name="baocun" unicode="&#xe60f;" 
d="M799 793h-29h-516h-29q-50 0 -86 -36t-36 -86v-574q0 -50 36 -86t86 -36h574q50 0 86 36t36 86v574q0 50 -36 86t-86 36zM721 744v-311h-418v311h418zM872 97q0 -30 -21.5 -51.5t-51.5 -21.5h-574q-30 0 -51.5 21.5t-21.5 51.5v574q0 30 21.5 51.5t51.5 21.5h29v-360h516
v360h29q30 0 51.5 -21.5t21.5 -51.5v-574zM611 459q10 0 17.5 7.5t7.5 17.5v172q0 10 -7.5 17t-17.5 7t-17 -7t-7 -17v-172q0 -10 7 -17.5t17 -7.5z" />
    <glyph glyph-name="close" unicode="&#xe6ac;" 
d="M557 384l281 -282q10 -9 10 -22t-9.5 -22.5t-22.5 -9.5t-22 10l-282 281l-282 -281q-9 -10 -22 -10t-22.5 9.5t-9.5 22.5t10 22l281 282l-281 282q-10 9 -10 22t9.5 22.5t22.5 9.5t22 -10l282 -281l282 281q9 10 22 10t22.5 -9.5t9.5 -22.5t-10 -22z" />
    <glyph glyph-name="iconfontdayinji" unicode="&#xe605;" horiz-adv-x="1030" 
d="M961 706h-122v99q0 36 -18 63.5t-49 27.5h-488q-34 0 -64 -29t-30 -62v-99h-96q-34 0 -64 -28.5t-30 -62.5v-298q0 -32 29 -51.5t65 -19.5h96v-304q0 -31 28.5 -50.5t65.5 -19.5h488q67 0 67 70v304h122q34 0 51.5 18.5t17.5 52.5v298q0 36 -18.5 63.5t-50.5 27.5v0z
M244 805q0 11 14 24.5t26 13.5h488q13 0 13 -35v-3v-99h-541v99v0zM785 -47q0 -12 -8 -20t-19 -8h-488q-11 0 -18.5 8t-7.5 20v402q0 11 7.5 19t18.5 8h488q11 0 19 -8t8 -19v-402v0zM975 317v-4q0 -9 -2 -11t-12 -2h-122v44q0 37 -18 64.5t-49 27.5h-488q-34 0 -64 -29
t-30 -63v-44h-96q-40 0 -40 17v298q0 11 14.5 24t25.5 13h867q3 0 5 -0.5t3 -2l2 -3t2 -4.5t1 -5t0.5 -5.5t0.5 -5.5v-6v-5v-298v0zM975 317zM707 261h-380q-11 0 -19 -7.5t-8 -18.5t8 -18.5t19 -7.5h380q11 0 19 7.5t8 18.5t-8 18.5t-19 7.5v0zM707 261zM707 105h-380
q-11 0 -19 -8t-8 -19t8 -19t19 -8h380q11 0 19 8t8 19t-8 19t-19 8v0zM707 105z" />
    <glyph glyph-name="tishi1" unicode="&#xe621;" 
d="M512 829q-91 0 -173 -35t-142 -95t-95 -142t-35 -173t35 -173t95 -142t142 -95t173 -35t173 35t142 95t95 142t35 173t-35 173t-95 142t-142 95t-173 35zM790.5 105.5q-54.5 -54.5 -125.5 -84.5q-73 -31 -153 -31t-153 31q-71 30 -125.5 84.5t-84.5 125.5q-31 73 -31 153
t31 153q30 71 84.5 125.5t125.5 84.5q73 31 153 31t153 -31q71 -30 125.5 -84.5t84.5 -125.5q31 -73 31 -153t-31 -153q-30 -71 -84.5 -125.5zM486 645h52v-378h-52v378zM486 205h52v-82h-52v82z" />
    <glyph glyph-name="bianji" unicode="&#xe6d9;" 
d="M922 486q-8 0 -8 -8t4 -22.5t4 -20.5v-409v-1q0 -21 -15 -36t-36 -15h-1h-716h-5q-20 0 -33.5 13.5t-13.5 33.5v5v716q-1 5 -1 10q0 17 13 30t30 13q5 0 10 -1h460q16 0 22.5 3t6.5 16v2q0 12 -8.5 20.5t-20.5 9.5h-460q-42 -1 -72 -30.5t-31 -70.5v-720v-2q0 -40 29 -69
t69 -30h721q40 1 69 30t29 70v1l5 411q-1 17 -11.5 35t-25.5 26zM364 380l-2 -2l-45 -155q-1 -3 -1 -7q0 -10 8 -18q7 -7 18 -7v0q4 0 7 1l157 41l-2 3q1 -2 2 -3l421 421q19 20 20 47v1q0 13 -7 29t-16 25l-38 38q-10 10 -26 16.5t-29 6.5h-1q-28 0 -47 -20l-422 -419
q1 1 3 2v0zM868 667l-37 -36l-72 72l37 37q1 1 9.5 13t15.5 19t10 4l55 -57q11 -6 18 -16q-7 -6 -17 -10zM433 378l290 289l73 -72l-290 -290zM380 254l17 87l73 -72z" />
    <glyph glyph-name="chakan" unicode="&#xe6da;" 
d="M178 674l37 36l325 -326l-36 -36zM504 420l36 -36l-325 -326l-37 37zM485 674l37 36l325 -326l-36 -36zM811 420l36 -36l-325 -326l-37 37z" />
    <glyph glyph-name="canshudaoru" unicode="&#xe6db;" 
d="M608 794h-387h-3q-16 0 -27.5 -11.5t-11.5 -27.5v-2v-738v-2q0 -16 11.5 -27.5t27.5 -11.5h3h582h3q16 0 27.5 11.5t11.5 27.5v2v545l-64.5 64.5t-114 113t-58.5 56.5zM637 720q12 -12 40.5 -39t52 -50.5t40.5 -41.5h-125q-8 0 -8 8v123zM803 36v-1q0 -8 -5.5 -14
t-13.5 -6h-2h-540h-2q-8 0 -13.5 6t-5.5 14v1v696v1q0 8 5.5 14t13.5 6h2h353v-193v-1q0 -5 3.5 -8t7.5 -3h2h195v-512zM512 435v0q11 0 18.5 -7.5t7.5 -17.5v-308q0 -10 -7.5 -17.5t-18.5 -7.5t-18.5 7.5t-7.5 17.5v308q0 10 7.5 17.5t18.5 7.5zM530.5 470.5
q7.5 -7.5 7.5 -18.5t-8 -18l-145 -145q-7 -7 -18 -7q-10 0 -17.5 7.5t-7.5 18.5q0 10 7 17l145 145q7 8 18 8t18.5 -7.5zM530 470l145 -145q7 -7 7 -17q0 -11 -7.5 -18.5t-17.5 -7.5q-11 0 -18 7l-145 145q-8 7 -8 18t7.5 18.5t18.5 7.5t18 -8z" />
    <glyph glyph-name="biaopei" unicode="&#xe6dc;" 
d="M896 233v-259h-51v259q-43 9 -73 45.5t-30 80t30 80t73 45.5v310h51v-310q42 -9 72.5 -45.5t30.5 -80t-30.5 -80t-72.5 -45.5zM870 435v0q-31 0 -53.5 -22.5t-22.5 -54t22.5 -54t54 -22.5t54 22.5t22.5 54t-22.5 54t-54.5 22.5zM538 387v-413h-52v413q-42 8 -72 45
t-30 80t30 80t72 45v157h52v-157q42 -8 72 -45t30 -80t-30 -80t-72 -45zM512 589v0q-32 0 -54.5 -22.5t-22.5 -54.5t22.5 -54.5t54.5 -22.5t54.5 22.5t22.5 54.5t-22.5 54.5t-54.5 22.5zM179 131v-157h-51v157q-42 8 -72.5 45t-30.5 80t30.5 80t72.5 45v413h51v-413
q43 -8 73 -45t30 -80t-30 -80t-73 -45zM153.5 333q-31.5 0 -54 -22.5t-22.5 -54.5t22.5 -54.5t54 -22.5t54 22.5t22.5 54.5v0q0 32 -22.5 54.5t-54 22.5z" />
    <glyph glyph-name="dakaiwenjian" unicode="&#xe6dd;" 
d="M765 2h-641q-9 1 -15 8q-4 5 -4 12q0 3 1 5l175 539v0h665q0 -15 -3 -28q3 -5 3 -12q0 -3 -1 -6l-162 -504q-4 -14 -18 -14v0v0zM127 54h615l153 460h-563l-154 -460h-51zM95 2v0q-8 0 -13.5 6t-5.5 14v691q0 24 17 40.5t41 16.5v0h271q27 0 54 -14.5t27 -36.5v-51
l250 -2v0q8 0 13.5 -5.5t5.5 -13.5q0 -30 -13 -30h-308q-4 0 -1 11l6 22t-5 18v51v0h-307v0v-717q0 -4 -5 -4t-14 2t-13 2v0z" />
    <glyph glyph-name="daochu" unicode="&#xe6de;" 
d="M949 5v409v43t-4.5 27.5t-8.5 19t-18 8.5t-28 5h-44h-133q-8 0 -14 -6t-6 -14.5t6 -14.5t14 -6l133 -10h9q32 0 37.5 -4.5t5.5 -31.5v-16v-409v-8.5v-9.5t-1 -8t-3 -8.5t-6 -6.5t-9.5 -5.5t-13.5 -3t-19 -1.5h-716q-10 0 -10 7t5 21.5t5 22.5v409q0 2 -0.5 9t0 9.5t1 9
t2.5 8.5t6 6.5t9.5 6t13.5 2.5t19 1l133 10q8 0 14 6t6 14.5t-6 14.5t-14 6h-133q-29 0 -44 -0.5t-28.5 -5t-18 -8t-8 -17.5t-4 -25t-0.5 -37v-10v-409q0 -30 3 -45.5t12.5 -30.5t30.5 -21t57 -6h665q26 0 42.5 2t28.5 7.5t18 11.5t9 20t4 26t1 36zM514 824v0
q10 0 17.5 -7.5t7.5 -18.5v-512q0 -10 -7.5 -17.5t-18 -7.5t-18 7.5t-7.5 17.5v512q0 11 7.5 18.5t18.5 7.5zM531 859q8 -8 8 -18.5t-8 -18.5l-144 -144q-8 -8 -18.5 -8t-18.5 8q-7 7 -7 17.5t7 18.5l145 145q8 7 18.5 7t17.5 -7zM531 859l145 -145q8 -8 8 -18.5t-8 -17.5
q-7 -8 -17.5 -8t-18.5 8l-145 144q-7 8 -7 18.5t7 18.5q8 7 18.5 7t17.5 -7z" />
    <glyph glyph-name="daoruzhanwei" unicode="&#xe6df;" 
d="M514 384q-7 0 -13 3l-407 199q-7 4 -12 12t-5 16.5t5 16.5t12 12l407 199q6 3 13 3t14 -3l401 -199q7 -4 12 -12.5t5 -16.5t-5 -16t-12 -12l-402 -199q-6 -3 -13 -3v0v0zM125 614l389 -190l382 190l-382 189zM516 -77q-8 -1 -15.5 -1t-14.5 1l-384 200q-11 7 -18.5 21.5
t-7.5 27.5v7q3 7 13 8.5t19.5 -1t18.5 -7.5l359 -205l413 178q4 2 10 7t11 10t11 9.5t9.5 4.5t5.5 -4q3 -7 3 -15q0 -10 -6 -22.5t-14 -18.5l-400 -197q-6 -3 -13 -3v0v0zM916 129q-12 0 -16.5 16t-4.5 34v410q0 19 4.5 36.5t16.5 17.5q12 -7 21 -22.5t9 -30.5v-1v-429
q0 -13 -9 -22t-21 -9v0zM127 128h-4q-13 0 -27 8t-20 20v484q0 8 3.5 8.5t12.5 -2.5t15 -3q4 0 8 1.5t6 2.5t3.5 1.5t2 -1.5t0.5 -7v-461q0 -18 -4.5 -36t-15.5 -18zM486 384h51v-461h-51v461z" />
    <glyph glyph-name="feibiaoxunjiadanbianhao" unicode="&#xe6e0;" 
d="M640 397q11 0 18.5 7.5t7.5 18.5t-7.5 18.5t-18.5 7.5h-66l66 66q7 7 7 17.5t-7.5 18t-18 7.5t-17.5 -7l-94 -94l-94 94q-7 7 -18 7q-10 0 -17.5 -7.5t-7.5 -18.5q0 -10 7 -17l84 -83l-80 17q-11 0 -18.5 -7.5t-7.5 -18.5t7.5 -18.5t18.5 -7.5h102v-51h-102
q-11 0 -18.5 -7.5t-7.5 -18t7.5 -18t18.5 -7.5h102v-60q0 -10 7.5 -17.5t18.5 -7.5t18.5 7.5t7.5 17.5v60h102q11 0 18.5 7.5t7.5 18t-7.5 18t-18.5 7.5h-102v51h102zM512 768q-159 0 -271.5 -112.5t-112.5 -271.5t112.5 -271.5t271.5 -112.5t271.5 112.5t112.5 271.5
t-112.5 271.5t-271.5 112.5zM512 48q-91 0 -168.5 45t-122.5 122.5t-45 168.5t45 168.5t122.5 122.5t168.5 45t168.5 -45t122.5 -122.5t45 -168.5q-1 -90 -46.5 -167t-122.5 -122.5t-167 -46.5z" />
    <glyph glyph-name="hetonghao" unicode="&#xe6e2;" 
d="M179 768v-768h512l154 205v563h-666zM794 205l-103 -154h-461v666h564v-512zM333 513h358v-53h-358v53zM333 358h256v-51h-256v51z" />
    <glyph glyph-name="liebiaozhankai" unicode="&#xe6e3;" 
d="M513 204l-359 359h717z" />
    <glyph glyph-name="shanchu" unicode="&#xe6e4;" 
d="M640 486h51v-358h-51v358zM538 128v358h-52v-358h52zM333 486h51v-358h-51v358zM691 640v102q0 22 -15 37t-36 15h-256q-21 0 -36 -15t-15 -37v-102h-256v-51h102v-563q0 -22 15 -37t36 -15h564v0q21 0 36 15t15 37v563h102v51h-256zM384 742h256v-102h-256v102zM794 26
h-564v563h564v-563z" />
    <glyph glyph-name="sousuoicon" unicode="&#xe6e5;" 
d="M691 205q-42 -42 -113.5 -71.5t-130.5 -29.5q-94 0 -173.5 46t-125.5 125.5t-46 173.5t46 173.5t125.5 125.5t173.5 46q59 0 130.5 -29.5t113.5 -71.5t71.5 -113.5t29.5 -130.5t-29.5 -130.5t-71.5 -113.5zM251 644q-33 -33 -57 -90.5t-24 -104.5q0 -115 81 -196
t195.5 -81t195.5 81t81 196q0 47 -23.5 104.5t-57 91t-91 57t-105 23.5t-104.5 -23.5t-91 -56.5v-1zM716 180q10 10 24 10t24 -10l147 -146q10 -10 10 -24.5t-10 -24.5t-24.5 -10t-24.5 10l-146 147q-11 10 -11 24t11 24v0z" />
    <glyph glyph-name="touxiangzhankaibtn" unicode="&#xe6e6;" 
d="M784 480l-247 -240q-11 -10 -25 -10t-24.5 10t-10.5 24t10 24l247 240q11 10 25 10t25 -10q10 -10 10 -24t-10 -24zM536.5 240q-10.5 -10 -24.5 -10t-25 10l-247 240q-10 10 -10 24t10 24q11 10 25 10t25 -10l247 -240q10 -10 10 -24t-10.5 -24z" />
    <glyph glyph-name="xiangmudizhi" unicode="&#xe6e7;" 
d="M512 640q-52 -1 -89 -38.5t-37 -90.5t37.5 -90.5t91 -37.5t91 37.5t37.5 90.5q0 54 -38.5 91.5t-91.5 37.5h-1zM512 440q-29 0 -49.5 21t-20.5 50q0 30 21 51t50.5 21t50.5 -21t21 -51q0 -29 -21.5 -50t-50.5 -21h-1zM819 492q0 127 -90 217t-217 90t-217 -90t-90 -217
q0 -46 29 -115.5t77 -145.5t86.5 -131.5t77.5 -107.5q14 -18 37 -18t37 18q39 53 77.5 108t86.5 131t77 145.5t29 115.5zM517 38l-5 -6l-5 6q-116 153 -183 275t-67 179q2 104 76.5 177.5t178 73.5t178 -73.5t75.5 -177.5q0 -57 -66.5 -179t-182.5 -275h1z" />
    <glyph glyph-name="xinjianxiangmu" unicode="&#xe6e8;" 
d="M608 794h-387h-3q-16 0 -27.5 -11.5t-11.5 -27.5v-2v-738v-2q0 -16 11.5 -27.5t27.5 -11.5h3h582h3q16 0 27.5 11.5t11.5 27.5v2v545l-64.5 64.5t-114 113t-58.5 56.5zM637 720q12 -12 40.5 -39t52 -50.5t40.5 -41.5h-125q-8 0 -8 8v123zM803 36v-1q0 -8 -5.5 -14
t-13.5 -6h-2h-540h-2q-8 0 -13.5 6t-5.5 14v1v696v1q0 8 5.5 14t13.5 6h2h353v-193v-1q0 -5 3.5 -8t7.5 -3h2h195v-512zM538 486h-52v-153l-153 -1v-50h153v-154h52v154h153v50l-153 1v153z" />
    <glyph glyph-name="xinjiangroup" unicode="&#xe6e9;" 
d="M50 535l447 -248q6 -4 14 -4v0q7 0 13 4l447 248v0v0l-443 253q-6 3 -13 3t-13 -3l-452 -253q-3 -1 -4 1q0 5 5 11q4 3 4 -2t-8 -7q-1 -1 3 -3zM510 740l359 -205l-359 -205l-358 205zM50 382q-2 -1 -3 0h3zM510 177l359 205h102l-447 -249q-6 -3 -13.5 -3t-13.5 3
l-447 249h102zM975 382q0 -3 -2 -4q-1 -1 -2 1v3h4zM50 228q-2 -1 -3 0h3zM510 23l359 205h102l-447 -249q-6 -3 -13 -3v0q-8 0 -14 4l-447 248h102zM975 228q0 -2 -2 -4q-1 0 -2 2v2h4z" />
    <glyph glyph-name="xiugaishijian" unicode="&#xe6ec;" 
d="M339 371q-1 -1 -1 -2l-39 -142q-1 -3 -1 -7q0 -10 7 -17t17 -7v0h1q3 0 6 1l141 39h1v0q2 0 4 1l378 378q17 18 17 43v1q0 12 -6.5 27.5t-15.5 23.5l-35 36q-9 9 -24.5 15.5t-27.5 6.5h-1q-25 0 -42 -17l-378 -378l-1 -1v-1zM816 653l-38 -38l-61 62l37 37q5 4 12 4
t12 -6l36 -36q6 -5 6 -13v0q0 -6 -4 -10v0zM406 366l273 273l61 -62l-272 -273l-62 62v0zM357 255l19 73l53 -53zM844 486q-11 0 -19 -8t-8 -19v-373v0q0 -14 -9.5 -23.5t-23.5 -9.5v0h-545v0q-14 0 -23.5 9.5t-9.5 23.5v596q0 14 9.5 23.5t23.5 9.5h333q10 1 17.5 8.5
t7.5 18t-7.5 18t-17.5 7.5h-336v0q-34 0 -58 -24t-24 -57v-605q0 -34 24 -58t58 -24h552q34 0 58 24t24 58v378q0 10 -7.5 18t-18.5 8v1z" />
    <glyph glyph-name="daoru" unicode="&#xe6ed;" 
d="M845 -102h-666q-35 0 -56 5.5t-31 20.5t-12.5 31t-2.5 45v461v9v38t3.5 24.5t8.5 17t18.5 8.5t28.5 5h43h185q8 0 14 -6t6 -14.5t-6 -14.5t-14 -6l-185 -10q-10 1 -18.5 -0.5t-14 -3t-9 -5.5t-5.5 -6.5t-3 -9t-1 -8.5v-9.5v-8.5v-461q0 -8 -5 -22.5t-5 -21.5t10 -7h717
q10 0 18.5 1.5t14 3t9 5.5t5.5 6.5t3 8.5t1 8v9.5v8.5v461v15q1 27 -4.5 31.5t-37.5 4.5h-9l-185 10q-8 0 -14 6t-6 14.5t6 14.5t14 6h185h43t28.5 -5t18.5 -8.5t8 -18.5t4 -27.5v-42.5v-461q0 -24 -0.5 -36t-4 -26t-9.5 -20t-17.5 -11.5t-28.5 -7t-42 -1.5zM644 397
q8 8 19 8t19 -8q8 -7 8 -18t-8 -19l-152 -147q-8 -7 -19 -7t-19 7l-153 147q-7 8 -7 19t7 18q9 8 20 8t19 -8l107 -103v551q0 10 7.5 17.5t17.5 7.5h2v0q11 0 18.5 -7.5t7.5 -17.5v-551z" />
    <glyph glyph-name="yizu" unicode="&#xe6f1;" 
d="M768 -26h-512q-42 0 -72 30t-30 73v614q0 43 30 73t72 30h512q42 0 72 -30t30 -73v-614q0 -43 -30 -73t-72 -30zM819 691q0 21 -15 36t-36 15h-512q-21 0 -36 -15t-15 -36v-614q0 -21 15 -36t36 -15h512v0q21 0 36 15t15 36v614zM691 384v0q-10 0 -17.5 7.5t-7.5 18.5v91
l-271 -271h91q11 0 18.5 -7.5t7.5 -18t-7.5 -18t-18.5 -7.5h-142l-19 -18l-36 36l18 18v143q0 11 7.5 18.5t18 7.5t18 -7.5t7.5 -18.5v-91l271 271h-91q-11 0 -18.5 7.5t-7.5 18t7.5 18t18.5 7.5h153v0q11 0 18.5 -7.5t7.5 -18.5v-153q0 -11 -7.5 -18.5t-18.5 -7.5z" />
    <glyph glyph-name="xinzengAHU" unicode="&#xe6f2;" 
d="M794 0h-564q-42 0 -72 30t-30 72v564q0 42 30 72t72 30h564q42 0 72 -30t30 -72v-564q0 -42 -30 -72t-72 -30v0zM845 666q0 21 -15 36t-36 15h-564q-21 0 -36 -15t-15 -36v-564q0 -21 15 -36t36 -15h564v0q21 0 36 15t15 36v564zM717 358h-179v-179q0 -10 -7.5 -17.5
t-18.5 -7.5t-18.5 7.5t-7.5 17.5v179h-179q-10 0 -17.5 7.5t-7.5 18.5t7.5 18.5t17.5 7.5h179v179q0 10 7.5 17.5t18.5 7.5t18.5 -7.5t7.5 -17.5v-179h179q10 0 17.5 -7.5t7.5 -18.5t-7.5 -18.5t-17.5 -7.5z" />
    <glyph glyph-name="fuzhi" unicode="&#xe6f3;" 
d="M896 77v665h-666q0 22 15 37t37 15h614v0q21 0 36 -15t15 -37v-614q0 -21 -15 -36t-36 -15zM794 589v-563q0 -22 -15 -37t-37 -15h-614q-21 0 -36 15t-15 37v563q0 21 15 36t36 15h614v0q22 0 37 -15t15 -36zM128 26h614v563h-614v-563z" />
    <glyph glyph-name="fanhui" unicode="&#xe6f4;" 
d="M563 52h-153v51h153q107 0 181.5 59t74.5 146.5t-74.5 146t-181.5 58.5h-307q-11 1 -20 4l108 -113q8 -8 8 -19t-7.5 -19t-18.5 -8t-18 8l-148 153q-7 7 -7 18.5t7 19.5l148 152q7 8 18 8t18.5 -8t7.5 -19t-7 -19l-103 -107h296h2h23q127 0 217 -75t90 -181t-90 -181
t-217 -75z" />
    <glyph glyph-name="baogao" unicode="&#xe6f6;" 
d="M768 -26h-512q-42 0 -72 30t-30 73v614q0 43 30 73t72 30h512q42 0 72 -30t30 -73v-614q0 -43 -30 -73t-72 -30zM819 691q0 21 -15 36t-36 15h-512q-21 0 -36 -15t-15 -36v-614q0 -21 15 -36t36 -15h512v0q21 0 36 15t15 36v614zM691 230h-358q-11 0 -18.5 7.5t-7.5 18.5
t7.5 18.5t18.5 7.5h358q11 0 18.5 -7.5t7.5 -18.5t-7.5 -18.5t-18.5 -7.5zM691 384h-358q-11 0 -18.5 7.5t-7.5 18t7.5 18t18.5 7.5h358q11 0 18.5 -7.5t7.5 -18t-7.5 -18t-18.5 -7.5zM486 538h-153q-11 0 -18.5 7.5t-7.5 18t7.5 18t18.5 7.5h153q11 0 18.5 -7.5t7.5 -18
t-7.5 -18t-18.5 -7.5z" />
    <glyph glyph-name="category-copy" unicode="&#xe6f7;" 
d="M894 722q6 0 9.5 -4t3.5 -9v-12q0 -5 -3.5 -9t-9.5 -4h-605q-6 0 -10 4t-4 9v12q0 5 4 9t10 4h605zM894 402q6 0 9.5 -4t3.5 -9v-11q0 -6 -3.5 -10t-9.5 -4h-605q-6 0 -10 4t-4 10v11q0 5 4 9t10 4h605zM894 83q6 0 9.5 -4t3.5 -10v-11q0 -5 -3.5 -9t-9.5 -4h-605
q-6 0 -10 4t-4 9v11q0 6 4 10t10 4h605zM117 704.5q0 17.5 12 30t29.5 12.5t30 -12.5t12.5 -30t-12.5 -30t-30 -12.5t-29.5 12.5t-12 30zM117 383.5q0 17.5 12 30t29.5 12.5t30 -12.5t12.5 -30t-12.5 -30t-30 -12.5t-29.5 12.5t-12 30zM117 63.5q0 17.5 12 30t29.5 12.5
t30 -12.5t12.5 -30t-12.5 -30t-30 -12.5t-29.5 12.5t-12 30z" />
    <glyph glyph-name="gongju" unicode="&#xe702;" 
d="M673 768q42 0 82 -16l-121 -120l-31 -32l31 -31l64 -64l32 -32l31 32l121 120q19 -48 14 -99q-3 -40 -19 -75q-17 -37 -45 -66q-66 -66 -159 -66q-49 0 -94 21l-28 13l-22 -22l-312 -312l-72 71l313 313l22 22l-12 28q-28 62 -16 130q12 69 62 119q66 66 159 66zM673 813
q-112 0 -191 -79q-59 -60 -74 -143t18 -156l-344 -345l135 -135l343 344q54 -25 113 -25q111 0 190 79q70 70 78 169t-49 177l-162 -162l-64 63l163 163q-70 50 -156 50zM246 91l-28 28l-28 -28l28 -28z" />
    <glyph glyph-name="peizhijizu" unicode="&#xe707;" 
d="M794 0h-564q-42 0 -72 30t-30 72v564q0 42 30 72t72 30h564q42 0 72 -30t30 -72v-564q0 -42 -30 -72t-72 -30v0zM845 666q0 21 -15 36t-36 15h-564q-21 0 -36 -15t-15 -36v-564q0 -21 15 -36t36 -15h564v0q21 0 36 15t15 36v564zM333 358h51v-102h256v256h-102v51h153
v-358h-358v153zM282 614h204v-204h-204v204zM333 461h102v102h-102v-102z" />
    <glyph glyph-name="tishi" unicode="&#xe708;" 
d="M512 794q-111 0 -205.5 -55t-149.5 -149.5t-55 -205.5t55 -205.5t149.5 -149.5t205.5 -55t205.5 55t149.5 149.5t55 205.5t-55 205.5t-149.5 149.5t-205.5 55zM562 216q-2 -19 -16.5 -32t-32.5 -13q-11 0 -21 5q-10 4 -18.5 15t-9.5 22q-1 5 -1 10v2q0 17 10 31
q15 18 39 18q21 0 36 -15t15 -37q0 -3 -1 -6v0zM566 538q-1 -11 -6 -30t-6 -26q-8 -41 -13 -71q-1 -6 -8 -68q-1 -6 -2 -17.5t-1 -13.5h-33q-1 2 -1 4l-3 27t-4 32.5t-4 27.5q-7 40 -15 79q-2 10 -6.5 27t-5.5 22q-2 10 -2 19v2q1 16 13 30t28 17q10 2 19 2h4q14 -1 27 -11
t18 -23q2 -9 2 -18q0 -6 -1 -11z" />
    <glyph glyph-name="mianbanbuzhi" unicode="&#xe709;" 
d="M845 102v564q0 21 -15 36t-36 15h-564v51h564q42 0 72 -30t30 -72v-564h-51zM691 666q43 0 73 -30t30 -73v-461q0 -42 -30 -72t-73 -30h-461q-42 0 -72 30t-30 72v461q0 43 30 73t72 30h461zM179 563v-461q0 -21 15 -36t36 -15h461v0q21 0 36 15t15 36v461q0 21 -15 36
t-36 15h-461q-21 0 -36 -15t-15 -36zM307 410v0q11 0 18.5 -7.5t7.5 -18.5v-179h179q11 0 18.5 -7.5t7.5 -18t-7.5 -18t-18.5 -7.5h-205v0q-10 0 -17.5 7.5t-7.5 17.5v205q0 11 7.5 18.5t17.5 7.5z" />
    <glyph glyph-name="jizushuxingpeizhi" unicode="&#xe70a;" 
d="M998 333v0q0 -43 -30 -80t-72 -46v-207h-51v207q-43 9 -73 45.5t-30 80t30 80.5t73 45v310h51v-310q42 -8 72 -45t30 -80v0zM538 361v-361h-52v361q-42 9 -72 45.5t-30 80t30 80t72 45.5v156h52v-156q42 -9 72 -45.5t30 -80t-30 -80t-72 -45.5zM179 105v-105h-51v105
q-42 9 -72.5 45.5t-30.5 80t30.5 80t72.5 45.5v412h51v-412q43 -9 73 -45.5t30 -80t-30 -80t-73 -45.5zM870 256v0q-31 0 -53.5 22.5t-22.5 54.5t22.5 54.5t54 22.5t54 -22.5t22.5 -54.5t-22.5 -54.5t-54.5 -22.5zM512 410q-32 0 -54.5 22.5t-22.5 54t22.5 54t54.5 22.5
t54.5 -22.5t22.5 -54t-22.5 -54t-54.5 -22.5zM154 154v0q-32 0 -54.5 22.5t-22.5 54t22.5 54t54 22.5t54 -22.5t22.5 -54t-22.5 -54t-53.5 -22.5z" />
    <glyph glyph-name="guidang" unicode="&#xe70b;" 
d="M1025 90v0q0 -37 -26 -63.5t-63 -26.5h-831q-39 3 -69 33t-34 69l1 230q-3 7 -3 14q0 6 2 12l225 372q14 15 38 26t44 12h409q7 1 14 1q22 0 47.5 -12t39.5 -28l201 -374q4 -8 5 -16v-249v0zM47 361v-22v22zM53 102q7 -15 22 -30t30 -21h817q20 2 35 17t17 34v205h-256
v-102v-3q0 -20 -14 -34t-34 -14h-3h-307q-19 1 -34 16t-17 35v102h-256v-205zM667 256l2 38v22l-2 42h-307v-102q0 -4 -2.5 -18t-2.5 -23.5t5 -9.5h307q5 0 5 9.5t-2.5 23.5t-2.5 18zM794 684q-10 15 -29.5 26.5t-37.5 12.5l-418 -6h-1q-16 0 -32.5 -9.5t-23.5 -22.5
l-199 -327l679 3h228zM746 511h-465q-9 2 -16 9.5t-7 17t7 17t16 8.5h465q10 -1 16.5 -8.5t6.5 -17t-6.5 -17t-16.5 -9.5z" />
    <glyph glyph-name="xiaoshouyuan" unicode="&#xe70c;" 
d="M461 256l-51 -205l102 -102l102 102l-51 205h-102zM512 0l-51 102l51 103l51 -103zM870 59v5q-10 83 -70 169.5t-134 124.5q40 33 70 93t32 112v5q0 104 -73.5 177.5t-177.5 73.5h-5h-5q-104 0 -177.5 -73.5t-73.5 -177.5v-5q2 -52 32 -112t70 -93q-74 -38 -134 -124.5
t-70 -169.5v-5v-1v0v-1q0 -10 7 -17t17 -7t17.5 7t7.5 17v1v0l1 5q6 89 66 162t140 82h102v0v0q16 1 33.5 1t37.5 -0.5t32 -0.5h51v0q52 -37 97.5 -108.5t57.5 -135.5v-5v0v-1q0 -10 7.5 -17t17.5 -7t17.5 7t7.5 17v1v0v1h-1zM307 563q0 85 60 145t145 60t145 -60t60 -145
t-60 -145t-145 -60h-4q-83 0 -142 59t-59 142v4z" />
    <glyph glyph-name="tianjia" unicode="&#xe70d;" 
d="M128 358v52h768v-52h-768zM486 768h52v-768h-52v768z" />
  </font>
</defs>
</svg>
